# xmcd CD database file
#
# Track frame offsets:
#	183
#	40780
#	71765
#	113200
#	155943
#	185008
#
# Disc length: 2671 seconds
#
# Revision: 1
# Processed by: cddbd v1.4PL0 Copyright (c) Steve Scherf et al.
# Submitted via: CDex 1.50
#
DISCID=550a6d06
DTITLE=THELONIOUS MONK - LIVE IN STOCKHOLM 1961 2
DYEAR=1961
DGENRE=Jazz
TTITLE0=WELL, YOU NEEDN'T
TTITLE1='ROUND MIDNIGHT
TTITLE2=BEMSHA SWING
TTITLE3=BLUE MONK
TTITLE4=EPISTROPHY
TTITLE5=BODY AND SOUL
EXTD=YEAR: 1961
EXTT0=
EXTT1=
EXTT2=
EXTT3=
EXTT4=
EXTT5=
PLAYORDER=
